<?xml version="1.0" standalone="no"?><!DOCTYPE svg PUBLIC "-//W3C//DTD SVG 1.1//EN" "http://www.w3.org/Graphics/SVG/1.1/DTD/svg11.dtd"><svg t="1565968060751" class="icon" viewBox="0 0 1024 1024" version="1.1" xmlns="http://www.w3.org/2000/svg" p-id="2031" xmlns:xlink="http://www.w3.org/1999/xlink" width="128" height="128"><defs><style type="text/css"></style></defs><path d="M693.333 170.667c-17.673 0-32-14.327-32-32 0-17.673 14.327-32 32-32h149.334c41.237 0 74.666 33.43 74.666 74.666v149.334c0 17.673-14.327 32-32 32-17.673 0-32-14.327-32-32V181.333c0-5.89-4.775-10.666-10.666-10.666H693.333z m160 522.666c0-17.673 14.327-32 32-32 17.673 0 32 14.327 32 32v149.334c0 41.237-33.43 74.666-74.666 74.666H693.333c-17.673 0-32-14.327-32-32 0-17.673 14.327-32 32-32h149.334c5.89 0 10.666-4.775 10.666-10.666V693.333z m-522.666 160c17.673 0 32 14.327 32 32 0 17.673-14.327 32-32 32H181.333c-41.237 0-74.666-33.43-74.666-74.666V693.333c0-17.673 14.327-32 32-32 17.673 0 32 14.327 32 32v149.334c0 5.89 4.775 10.666 10.666 10.666h149.334z m-160-522.666c0 17.673-14.327 32-32 32-17.673 0-32-14.327-32-32V181.333c0-41.237 33.43-74.666 74.666-74.666h149.334c17.673 0 32 14.327 32 32 0 17.673-14.327 32-32 32H181.333c-5.89 0-10.666 4.775-10.666 10.666v149.334zM800 480c17.673 0 32 14.327 32 32 0 17.673-14.327 32-32 32H224c-17.673 0-32-14.327-32-32 0-17.673 14.327-32 32-32h576z" fill="#000000" p-id="2032"></path></svg>