<?xml version="1.0" standalone="no"?><!DOCTYPE svg PUBLIC "-//W3C//DTD SVG 1.1//EN" "http://www.w3.org/Graphics/SVG/1.1/DTD/svg11.dtd"><svg t="1565965143297" class="icon" viewBox="0 0 1024 1024" version="1.1" xmlns="http://www.w3.org/2000/svg" p-id="1711" width="128" height="128" xmlns:xlink="http://www.w3.org/1999/xlink"><defs><style type="text/css"></style></defs><path d="M467.157333 275.882667l-177.237333 171.093333a46.037333 46.037333 0 0 1-63.445333 0 42.24 42.24 0 0 1 0-61.226667l253.952-245.034666a46.037333 46.037333 0 0 1 63.445333-0.042667l253.653333 244.778667a42.24 42.24 0 0 1 0 61.269333 46.037333 46.037333 0 0 1-63.445333 0L556.8 275.712v363.690667c0 23.893333-20.053333 43.264-44.842667 43.264-24.746667 0-44.842667-19.370667-44.842666-43.264v-363.52zM258.218667 810.666667h507.562666c24.746667 0 44.885333 19.114667 44.885334 42.666666s-20.096 42.666667-44.885334 42.666667H258.218667C233.472 896 213.333333 876.885333 213.333333 853.333333s20.096-42.666667 44.885334-42.666666z" p-id="1712" fill="#2c3e50"></path></svg>