<?xml version="1.0" standalone="no"?><!DOCTYPE svg PUBLIC "-//W3C//DTD SVG 1.1//EN" "http://www.w3.org/Graphics/SVG/1.1/DTD/svg11.dtd"><svg t="1565966875606" class="icon" viewBox="0 0 1024 1024" version="1.1" xmlns="http://www.w3.org/2000/svg" p-id="1820" xmlns:xlink="http://www.w3.org/1999/xlink" width="128" height="128"><defs><style type="text/css"></style></defs><path d="M853.333 533.333c0-17.673 14.327-32 32-32 17.673 0 32 14.327 32 32V800c0 64.801-52.532 117.333-117.333 117.333H224c-64.801 0-117.333-52.532-117.333-117.333V256c0-64.801 52.532-117.333 117.333-117.333h277.333c17.673 0 32 14.327 32 32 0 17.673-14.327 32-32 32H224c-29.455 0-53.333 23.878-53.333 53.333v544c0 29.455 23.878 53.333 53.333 53.333h576c29.455 0 53.333-23.878 53.333-53.333V533.333zM811.272 256l-89.79-95.402c-12.113-12.87-11.499-33.121 1.37-45.234 12.87-12.112 33.122-11.499 45.235 1.371l140.549 149.333C927.856 286.49 913.377 320 885.333 320H724.706C643.026 320 576 391.215 576 480v192c0 17.673-14.327 32-32 32-17.673 0-32-14.327-32-32V480c0-123.293 94.783-224 212.706-224h86.566z" fill="#2c3e50" p-id="1821"></path></svg>