<?xml version="1.0" standalone="no"?><!DOCTYPE svg PUBLIC "-//W3C//DTD SVG 1.1//EN" "http://www.w3.org/Graphics/SVG/1.1/DTD/svg11.dtd"><svg t="1565966122372" class="icon" viewBox="0 0 1024 1024" version="1.1" xmlns="http://www.w3.org/2000/svg" p-id="1653" xmlns:xlink="http://www.w3.org/1999/xlink" width="128" height="128"><defs><style type="text/css"></style></defs><path d="M395.76 586.572H224.026c-22.41 0-37.877-22.443-29.9-43.384L364.769 95.271a31.995 31.995 0 0 1 29.9-20.604h287.958c22.723 0 38.204 23.023 29.63 44.065l-99.363 243.881h187.05c27.51 0 42.194 32.42 24.048 53.097L365.39 938.28c-22.294 25.404-63.628 3.383-54.979-29.29l85.35-322.418z m20.957-447.917L270.452 522.584h166.876c20.997 0 36.303 19.883 30.93 40.18L407.12 793.717l322.175-367.114H565.31c-22.722 0-38.204-23.023-29.63-44.066l99.363-243.881H416.717z" fill="#d81e06" p-id="1654"></path></svg>